<svg xmlns="http://www.w3.org/2000/svg" xmlns:xlink="http://www.w3.org/1999/xlink" viewBox="0 0 99.76 73.33"><defs><style>.a{fill:url(#a);}.b{fill:url(#b);}.c{fill:none;stroke-miterlimit:10;stroke:url(#c);}</style><linearGradient id="a" x1="122.77" y1="33.84" x2="160.57" y2="33.84" gradientTransform="translate(179 -30.85) rotate(134.03)" gradientUnits="userSpaceOnUse"><stop offset="0" stop-color="#c32035"/><stop offset="0.12" stop-color="#bc1f35"/><stop offset="0.3" stop-color="#a71d35"/><stop offset="0.52" stop-color="#851935"/><stop offset="0.77" stop-color="#571436"/><stop offset="1" stop-color="#250e36"/></linearGradient><linearGradient id="b" x1="122.51" y1="86.09" x2="160.3" y2="86.09" gradientTransform="translate(104.76 -131.15) rotate(74.03)" xlink:href="#a"/><linearGradient id="c" x1="-212.5" y1="-137.59" x2="-138.93" y2="-137.59" gradientTransform="translate(-86.02 214.13) rotate(89.39)" xlink:href="#a"/></defs><polygon class="a" points="44.43 36.11 81.1 45.27 54.83 72.44 44.43 36.11"/><polygon class="b" points="45.15 32.98 71.42 5.81 81.81 42.15 45.15 32.98"/><path class="c" d="M85.92,61.52c0,.09-3.1,5.53-3.19,5.62a2.67,2.67,0,0,0,.58,3.32,12.35,12.35,0,0,0,4.19,2.37s2.45-.11,3-1.53c0,0,9-12.37,8.78-32.67S86.18.28,65.41.5C24.15.94,35.72,71.9,0,72.28"/></svg>