<svg width="16" height="17" viewBox="0 0 16 17" fill="none" xmlns="http://www.w3.org/2000/svg">
<path d="M9.9177 3.755H6.0827C4.62881 3.755 3.4502 4.93361 3.4502 6.3875V10.615C3.4502 12.0689 4.62881 13.2475 6.0827 13.2475H9.9177C11.3716 13.2475 12.5502 12.0689 12.5502 10.615V6.3875C12.5502 4.93361 11.3716 3.755 9.9177 3.755Z" stroke="black" stroke-width="0.75" stroke-linecap="round"/>
<path d="M7.99969 10.8199C9.28099 10.8199 10.3197 9.78123 10.3197 8.49993C10.3197 7.21863 9.28099 6.17993 7.99969 6.17993C6.71839 6.17993 5.67969 7.21863 5.67969 8.49993C5.67969 9.78123 6.71839 10.8199 7.99969 10.8199Z" stroke="black" stroke-width="0.75" stroke-linecap="round"/>
<path d="M10.7773 5.76498C10.9595 5.76498 11.1073 5.61723 11.1073 5.43498C11.1073 5.25273 10.9595 5.10498 10.7773 5.10498C10.595 5.10498 10.4473 5.25273 10.4473 5.43498C10.4473 5.61723 10.595 5.76498 10.7773 5.76498Z" stroke="black" stroke-width="0.75"/>
</svg>
