<svg width="65" height="64" viewBox="0 0 65 64" fill="none" xmlns="http://www.w3.org/2000/svg">
<path d="M39.1099 54.93L28.4399 35.57L9.57989 25.38C9.41776 25.2808 9.28723 25.1375 9.2036 24.9669C9.11996 24.7962 9.08669 24.6053 9.10768 24.4164C9.12867 24.2275 9.20304 24.0485 9.3221 23.9004C9.44115 23.7522 9.59995 23.6411 9.77989 23.58L54.5799 8.63997C54.7569 8.57937 54.9473 8.56964 55.1296 8.61189C55.3119 8.65413 55.4786 8.74666 55.6109 8.87895C55.7432 9.01125 55.8357 9.178 55.878 9.36026C55.9202 9.54251 55.9105 9.73297 55.8499 9.90997L40.9099 54.73C40.8488 54.9099 40.7376 55.0687 40.5895 55.1878C40.4414 55.3068 40.2624 55.3812 40.0735 55.4022C39.8846 55.4232 39.6936 55.3899 39.523 55.3063C39.3523 55.2226 39.209 55.0921 39.1099 54.93V54.93Z" stroke="#F2F2F2" stroke-width="3"/>
<path d="M55.6304 8.90997L28.4404 35.57" stroke="#F2F2F2" stroke-width="3" stroke-linecap="round"/>
</svg>
