<svg width="16" height="17" viewBox="0 0 16 17" fill="none" xmlns="http://www.w3.org/2000/svg">
<path d="M13.6229 3.57494C13.6229 3.54994 13.6004 3.53494 13.5804 3.55244C13.1879 3.89244 12.2404 4.16744 12.1204 4.17994C12.1169 4.18153 12.1131 4.18235 12.1092 4.18235C12.1053 4.18235 12.1015 4.18153 12.0979 4.17994C11.4029 3.06994 9.80044 3.36994 9.80044 3.36994C7.44544 3.86994 7.70544 6.24994 7.75044 6.49994C7.75044 6.51244 7.75044 6.52244 7.72794 6.52244C5.10794 6.65244 2.82044 4.21744 2.56044 3.92994C2.55786 3.9268 2.55462 3.92427 2.55095 3.92254C2.54727 3.9208 2.54326 3.9199 2.53919 3.9199C2.53513 3.9199 2.53112 3.9208 2.52744 3.92254C2.52377 3.92427 2.52052 3.9268 2.51794 3.92994C2.22393 4.47501 2.1307 5.10602 2.25452 5.71283C2.37835 6.31963 2.71137 6.86366 3.19544 7.24994C3.19959 7.25236 3.20304 7.25583 3.20543 7.26C3.20782 7.26417 3.20908 7.26889 3.20908 7.27369C3.20908 7.2785 3.20782 7.28322 3.20543 7.28739C3.20304 7.29155 3.19959 7.29502 3.19544 7.29744C2.85401 7.28677 2.51645 7.22179 2.19544 7.10494C2.18044 7.10494 2.16294 7.10494 2.16294 7.12994C2.19794 8.67994 3.71794 9.37994 4.07044 9.52744C4.07545 9.52909 4.0798 9.53227 4.08289 9.53653C4.08598 9.5408 4.08764 9.54593 4.08764 9.55119C4.08764 9.55646 4.08598 9.56159 4.08289 9.56585C4.0798 9.57012 4.07545 9.5733 4.07044 9.57494C3.75455 9.64377 3.43035 9.66651 3.10794 9.64244C3.10361 9.64228 3.09929 9.64314 3.09535 9.64496C3.09141 9.64679 3.08796 9.64952 3.08527 9.65293C3.08259 9.65635 3.08075 9.66035 3.07991 9.66461C3.07908 9.66887 3.07926 9.67327 3.08044 9.67744C3.39794 10.8724 4.95544 11.3724 5.23544 11.4549C5.24013 11.4559 5.24448 11.4581 5.24806 11.4613C5.25163 11.4645 5.25431 11.4686 5.25583 11.4731C5.25734 11.4777 5.25764 11.4826 5.2567 11.4873C5.25576 11.492 5.2536 11.4963 5.25044 11.4999C4.28794 12.3599 2.39044 12.5874 2.00044 12.6274C1.99526 12.6281 1.99038 12.6303 1.98638 12.6336C1.98238 12.637 1.97941 12.6414 1.97784 12.6464C1.97626 12.6514 1.97614 12.6567 1.97749 12.6618C1.97884 12.6668 1.9816 12.6714 1.98544 12.6749C3.44044 13.6749 7.25044 14.5049 10.1604 12.0174C11.0207 11.2677 11.7005 10.3332 12.149 9.28386C12.5975 8.23452 12.8031 7.0974 12.7504 5.95744C12.7505 5.95328 12.7517 5.9492 12.7539 5.94567C12.7561 5.94214 12.7592 5.93929 12.7629 5.93744C13.2855 5.6305 13.721 5.19505 14.0279 4.67244C14.0279 4.64744 14.0279 4.63244 13.9904 4.63994C13.7374 4.72886 13.4641 4.74361 13.2029 4.68244C13.2029 4.68244 13.6304 3.94244 13.6229 3.57494Z" stroke="black" stroke-width="0.75" stroke-linecap="round"/>
</svg>
