<svg width="138" height="118" viewBox="0 0 138 118" fill="none" xmlns="http://www.w3.org/2000/svg">
<path d="M132.593 90.8404C125.229 94.6791 87.078 110.365 78.9557 114.599C70.834 118.834 66.3219 118.793 59.9057 115.726C53.4896 112.659 12.8905 96.2592 5.57731 92.7638C1.92182 91.0166 0 89.5422 0 88.1493V74.2006C0 74.2006 52.8546 62.6939 61.3877 59.633C69.9202 56.5716 72.8808 56.4611 80.1422 59.1209C87.4042 61.7813 130.823 69.6152 138 72.2437C138 72.2437 137.997 84.7019 137.997 85.9951C137.998 87.3741 136.342 88.8867 132.593 90.8404Z" fill="#912626"/>
<path d="M132.59 76.9739C125.226 80.811 87.0769 96.4977 78.9549 100.731C70.8334 104.967 66.3214 104.925 59.9055 101.858C53.489 98.793 12.8918 82.391 5.57884 78.8973C-1.73408 75.4015 -1.88771 72.9957 5.29637 70.1828C12.4799 67.3689 52.8546 51.5286 61.3885 48.4673C69.9207 45.407 72.8807 45.2954 80.1419 47.9562C87.4036 50.616 125.326 65.7102 132.502 68.3382C139.679 70.9693 139.955 73.1353 132.59 76.9739Z" fill="#C6302B"/>
<path d="M132.593 68.2704C125.229 72.1092 87.078 87.7953 78.9557 92.0309C70.834 96.2642 66.3219 96.2233 59.9057 93.1559C53.4891 90.0902 12.8905 73.6892 5.57731 70.1938C1.92182 68.4467 0 66.9739 0 65.5809V51.6306C0 51.6306 52.8546 40.1245 61.3877 37.0631C69.9202 34.0022 72.8808 33.8911 80.1422 36.551C87.4042 39.2113 130.823 47.0436 138 49.6727C138 49.6727 137.997 62.1308 137.997 63.4257C137.998 64.8041 136.342 66.3168 132.593 68.2704Z" fill="#912626"/>
<path d="M132.59 54.404C125.226 58.2421 87.0769 73.9277 78.9549 78.1631C70.8334 82.3969 66.3214 82.3554 59.9055 79.2881C53.489 76.223 12.8918 59.8215 5.57884 56.3273C-1.73408 52.8326 -1.88771 50.4262 5.29637 47.6123C12.4799 44.8 52.8546 28.9586 61.3885 25.8978C69.9207 22.837 72.8807 22.726 80.1419 25.3863C87.4036 28.046 125.326 43.1392 132.502 45.7682C139.679 48.3983 139.955 50.5653 132.59 54.4034V54.404Z" fill="#C6302B"/>
<path d="M132.593 44.8633C125.229 48.7021 87.078 64.3888 78.9557 68.6243C70.834 72.8583 66.3219 72.8168 59.9057 69.7494C53.4891 66.6836 12.8905 50.2822 5.57731 46.7878C1.92182 45.0401 0 43.5668 0 42.1749V28.2241C0 28.2241 52.8546 16.7185 61.3877 13.6576C69.9202 10.5962 72.8808 10.4857 80.1422 13.1455C87.4042 15.8059 130.823 23.6382 138 26.2672C138 26.2672 137.997 38.7254 137.997 40.0197C137.998 41.397 136.342 42.9097 132.593 44.8633Z" fill="#912626"/>
<path d="M132.59 30.9969C125.226 34.835 87.0769 50.5218 78.9549 54.7561C70.8334 58.9899 66.3214 58.9484 59.9055 55.8822C53.4896 52.816 12.8918 36.4156 5.57884 32.9208C-1.73408 29.4261 -1.88771 27.0192 5.29637 24.2058C12.4799 21.393 52.8546 5.5532 61.3885 2.49133C69.9207 -0.570001 72.8807 -0.679969 80.1419 1.9803C87.4036 4.64057 125.326 19.7338 132.502 22.3628C139.679 24.9912 139.955 27.1588 132.59 30.9969Z" fill="#C6302B"/>
<path d="M85.8633 17.4275L73.9991 18.6593L71.3428 25.0501L67.0525 17.9185L53.3525 16.6872L63.5752 13.0008L60.5082 7.34171L70.0789 11.0848L79.1018 8.13066L76.6633 13.9823L85.8633 17.4275Z" fill="white"/>
<path d="M70.6343 48.4331L48.4912 39.2491L80.221 34.379L70.6343 48.4331Z" fill="white"/>
<path d="M39.9346 20.9796C49.301 20.9796 56.8936 23.9231 56.8936 27.5534C56.8936 31.1842 49.301 34.1271 39.9346 34.1271C30.5688 34.1271 22.9756 31.1842 22.9756 27.5534C22.9756 23.9231 30.5688 20.9796 39.9346 20.9796Z" fill="white"/>
<path d="M99.8857 19.1744L118.664 26.5954L99.9018 34.0089L99.8857 19.1744Z" fill="#621B1C"/>
<path d="M79.1104 27.3924L99.8858 19.1744L99.9018 34.0089L97.865 34.8058L79.1104 27.3924Z" fill="#9A2928"/>
</svg>
